<?xml version="1.0" encoding="utf-8"?>
<!-- Generator: Adobe Illustrator 23.1.1, SVG Export Plug-In . SVG Version: 6.00 Build 0)  -->
<svg version="1.1" id="Слой_1" xmlns="http://www.w3.org/2000/svg" xmlns:xlink="http://www.w3.org/1999/xlink" x="0px" y="0px"
	 viewBox="0 0 1000 1000" style="enable-background:new 0 0 1000 1000;" xml:space="preserve">
<style type="text/css">
	.st0{fill:#F3CE67;}
	.st1{fill:#F4F4F4;}
	.st2{fill:#393939;}
</style>
<g>
	<g>
		<g>
			<path class="st0" d="M524.6,351.59c1.79,0.07,3.63-0.11,5.35,0.27c6.14,1.33,12.24,2.84,18.36,4.28c0.49,0.12,1,0.16,1.5,0.24
				c0.06-0.22,0.12-0.45,0.18-0.67c-5.47-1.57-10.86-3.6-16.44-4.6c-9.14-1.64-18.38-2.67-27.6-3.84c-2.85-0.36-3.15-0.49-2.87-3.94
				c5.52,0.53,11.08,0.78,16.56,1.62c27.05,4.17,51.87,14.02,74.57,29.35c9.93,6.71,21.06,7.95,32.66,5.72
				c4.04-0.78,7.5-2.55,9.32-6.57c-0.46-1.1-1.03-2.48-1.92-4.63c2.55,1.03,4.47,1.81,6.4,2.59c0.11-0.19,0.21-0.38,0.32-0.57
				c-2.47-1.4-4.86-2.98-7.43-4.17c-3.21-1.48-6.04-7.12-4.97-10.87c8.23,3.74,15.51,8.78,22.42,14.57
				c-1.66-1.67-3.27-3.41-5.01-5.01c-1.83-1.68-3.73-3.28-5.68-4.81c-1.94-1.53-3.98-2.93-5.79-4.76c0.7,0.27,1.43,0.47,2.09,0.81
				c10.93,5.61,20.16,13.21,26.92,23.55c1.49,2.28,3.02,2.96,5.51,2.11c0.87-0.3,1.87-0.23,2.82-0.33c0.02,0.22,0.05,0.44,0.07,0.66
				c-0.78,0.2-1.55,0.39-3.05,0.77c1.33,0.34,1.97,0.55,2.63,0.65c2.25,0.33,4.67-1.54,6.86,0.61c0.28,0.27,1.62-0.44,2.41-0.82
				c2.24-1.08,4.26-0.85,6.16,0.78c2.57,2.2,5.6,2.7,8.91,2.75c2.1,0.03,4.19,0.85,6.28,1.32c3.15,0.71,6.3,1.44,9.45,2.15
				c0.76,0.17,1.6,0.19,2.28,0.53c2.92,1.41,5.74,3.02,8.69,4.34c6.6,2.95,12.83,6.45,18.09,11.5c4.33,4.15,7.28,9.07,8.55,15.02
				c0.42,1.95,1.65,3.71,2.17,5.65c0.34,1.27,0.36,2.8,0.01,4.06c-1.1,3.99-2.53,7.88-3.66,11.85c-2.06,7.19-5.92,12.48-13.13,15.64
				c-12.99,5.69-25.67,12.1-39.58,15.34c-4.9,1.14-9.95,1.69-14.92,2.55c-1.9,0.33-2.6-0.52-2.55-2.22c6.03-1.03,12.06-1.86,18-3.11
				c14.76-3.12,28.5-9.07,41.97-15.64c1.92-0.94,3.74-2.9,4.68-4.84c1.53-3.14,2.51-6.6,3.32-10.02c0.67-2.81,0.63-5.76,2.53-8.22
				c1.53-1.98-0.99-3.35-0.85-5.17c-0.28-0.03-0.57-0.07-0.85-0.1c-0.42,2.39-0.84,4.78-1.28,7.31c-0.71-2.1-1.33-3.94-1.94-5.77
				c-0.33-0.05-0.67-0.1-1-0.15c1.15,4.36-2.14,5.41-4.53,7.21c-0.63,0.48-0.94,1.5-1.19,2.34c-0.28,0.91-0.33,1.89-0.44,2.63
				c-0.89-2.13-1.83-4.37-2.76-6.6c-0.31,0.09-0.63,0.18-0.94,0.26c0.13,1.21,0.25,2.43,0.41,3.92c-1.87,0.76-3.76,1.71-5.76,2.31
				c-2.01,0.61-3.66,1.3-3.22,4.04c-1.28-2.49-2.44-4.75-3.6-7c-0.28,0.1-0.56,0.19-0.83,0.29c0,1.6,0,3.19,0,5.17
				c-3.42,0.85-6.99,1.74-10.77,2.68c-0.1,1.04-0.22,2.15-0.32,3.16c-1.39-2.9-2.81-5.87-4.23-8.84c-0.29,0.1-0.59,0.21-0.88,0.31
				c0,1.99,0,3.97,0,6.31c-4.03,0.67-7.91,1.31-11.87,1.97c-0.21,1.43-0.4,2.73-0.61,4.15c-0.97-3.39-1.9-6.65-2.84-9.92
				c-0.31,0.04-0.61,0.09-0.92,0.13c-0.15,1.97-0.31,3.95-0.48,6.12c-2.4,0.29-4.75,0.66-7.12,0.84c-2.39,0.18-4.89,0.07-4.02,3.64
				c-1.06-3.35-2.12-6.7-3.18-10.05c-0.27,0.07-0.55,0.14-0.82,0.2c-0.24,2.24-0.49,4.48-0.74,6.85c-4.14,0.44-8.16,0.87-12.23,1.3
				c-0.79-2.35-1.82-5.41-2.85-8.46c-0.26,0.04-0.52,0.09-0.78,0.13c0,2.63,0,5.27,0,8.6c-3.75,0-7.18,0.1-10.6-0.08
				c-0.7-0.04-1.58-0.95-1.99-1.67c-3.59-6.29-8.86-10.99-14.72-16.12c1.66,4.68,3.1,8.71,4.39,12.35
				c-8.09,0.73-16.01,1.44-24.27,2.18c-1.3-1.66-3.07-3.91-4.83-6.16c-0.16,0.1-0.31,0.19-0.47,0.29c0.19,0.91,0.44,1.82,0.56,2.74
				c0.64,5.01-1.33,8.19-6.11,9.42c-2.82,0.72-5.73,1.11-8.62,1.49c-2.32,0.3-4.64-0.19-6.53,2.21c-0.75,0.95-3.64,1.01-5.06,0.38
				c-1.3-0.58-2.1-2.58-2.76-4.11c-0.33-0.77,0.13-1.89,0.28-3.33c-1.88,1.99-2.59,4.12-2.34,6.34c0.27,2.36-0.83,2.96-2.79,3.49
				c-16.62,4.52-33.22,5.04-49.85,0.1c-0.32-0.09-0.66-0.13-1.06,0.1c16.02,14.81,34.28,20.63,55.85,13.99
				c-2.7,1.13-5.39,2.26-8.09,3.38c0.05,0.14,0.09,0.28,0.14,0.42c1.68-0.46,3.53-0.6,5-1.43c4.02-2.26,8.23-1.91,12.4-1.12
				c9.91,1.88,19.77,3.99,29.65,6.01c0.87,0.18,1.71,0.45,2.58,0.63c5.42,1.1,7.78,0.13,10.78-4.51c2.07-3.2,4.16-6.39,6.1-9.67
				c4.58-7.71,3.61-15.63,0.61-23.55c-0.96-2.53-2.13-4.99-3.22-7.49c15.22,12.94,13.36,27.84,4.49,43.74c3.39,0,6.17,0,9.32,0
				c-0.64-1.61-1.19-2.98-1.75-4.36c0.11-0.05,0.22-0.09,0.33-0.14c0.84,1.11,1.68,2.22,2.53,3.34c0.12-0.06,0.24-0.12,0.36-0.18
				c-0.26-0.65-0.52-1.31-1.04-2.6c9.63,10.62,21.42,16.13,34.52,19.25c-13.39-5.03-26.28-10.74-34.43-24.26
				c2.39-0.91,4.36-1.83,6.42-2.42c2.63-0.76,5.3-1.41,8-1.83c1.85-0.29,3.64-0.05,4.63,2.14c0.66,1.45,1.83,2.66,3.18,3.73
				c-0.66-1.7-1.32-3.4-1.98-5.1c0.18-0.22,0.37-0.44,0.55-0.65c1.12,0.88,2.23,1.76,3.46,2.73c-0.14-0.86-0.27-1.68-0.39-2.43
				c0.16-0.22,0.23-0.43,0.37-0.48c4.56-1.53,4.84-1.62,6.26,2.89c3.13,10,9.97,16.52,18.96,21.2c1.39,0.73,2.78,1.46,4.17,2.2
				c-0.05,0.25-0.11,0.51-0.16,0.76c-4.34-0.74-8.68-1.49-13.02-2.23c-0.06,0.17-0.11,0.33-0.17,0.5
				c5.13,1.42,10.27,2.84,15.44,4.27c-5.73,1.75-11.63,2.1-17.62,1.48c-13.37-1.37-25.28-6.57-36.46-13.78
				c-1.07-0.69-2.57-0.88-3.89-0.98c-1.94-0.14-3.91,0.15-5.84,0c-2.4-0.18-4.72-0.68-4.38-4.69c-1.81,1.02-3.4,1.5-4.37,2.56
				c-3.94,4.24-8.6,4.29-13.73,3.02c-6.01-1.49-12.03-3.04-18.12-4.08c-6.63-1.12-13.23-0.56-19.69,1.58
				c-1.46,0.48-3.35,0.29-4.87-0.17c-6.77-2.05-13.66-2.54-21.08-2.24c0.35,1.73,0.68,3.38,1.18,5.84
				c-1.35-1.79-2.21-2.93-3.18-4.22c-0.26,0.74-0.47,1.37-0.77,2.23c-0.2-0.38-0.38-0.56-0.39-0.75c-0.21-3.46-2.27-4.6-5.47-5.46
				c-9.32-2.52-17.46-7.34-24.35-14.12c-1.54-1.52-2.88-3.42-3.74-5.39c-1.25-2.86,0.23-4.59,3.3-4.42
				c13.67,0.73,27.34,1.01,40.72-2.52c3.64-0.96,7.11-2.64,10.58-4.18c7.77-3.44,15.41-7.18,23.26-10.42
				c3.35-1.38,7.1-1.78,10.48-2.58c0.17,0.13-0.21-0.16-0.78-0.63c4.54-2.67,9.47-3.9,14.42-4.99c2.59-0.57,5.26-0.77,7.87-1.3
				c1.36-0.27,2.72-0.74,3.95-1.38c3.78-1.94,7.52-3.97,11.24-6.03c3.38-1.87,6.58-1.63,9.76,0.48c1.4,0.93,2.9,1.7,4.88,2.85
				c-0.58-0.96-0.87-1.45-1.17-1.94c7.98-6.92,13.09-8.58,20.61-2.18c1.61-1.2,3.36-2.4,5-3.75c2.92-2.42,5.98-2.9,9.33-0.99
				c1.3,0.74,2.6,1.5,3.9,2.26c0.99-3.5,6.74-4.64,10.69-0.58c2.34-3.18,1.61-5.37-2.74-7.83c-0.39,0.61-0.79,1.23-1.46,2.28
				c-0.14-1.65-0.23-2.82-0.31-3.78c-3.09-1.05-5.96-2.03-8.86-3.01c-0.65,1.14-1.19,2.09-2.05,3.62c0-1.79,0-2.9,0-4.36
				c-3.1-0.73-6.16-1.44-9.26-2.17c-0.54,0.98-1.03,1.87-1.84,3.33c0-1.97,0-3.31,0-4.2c-4.55-0.93-8.84-1.8-13.21-2.7
				c-0.49,1.41-0.94,2.69-1.59,4.56c-0.23-2.31-0.39-3.94-0.5-5.14c-2.49-0.44-4.58-0.8-6.66-1.18c-2.13-0.39-4.49-1.52-5.65,1.7
				c0-1.02,0-2.04,0-3.37c-3.12,1.58-6.58-2.75-9.49,1.39c-0.1-1.01-0.18-1.8-0.26-2.58c-1.27-0.13-2.52-0.41-3.75-0.33
				c-1.15,0.08-2.28,0.56-3.51,0.89c-0.06-0.52-0.16-1.43-0.26-2.41c-2.13,0.37-4.14,0.73-6.29,1.11c-0.07-0.32-0.29-1.3-0.48-2.15
				c-0.91,0.26-1.66,0.68-2.39,0.64c-7.51-0.42-15.02-0.98-22.53-1.38c-3.63-0.19-6.62-1.04-9.48-3.78
				c-13.5-12.93-29.62-21.83-46.67-29.12c-5.59-2.39-11.4-4.3-17.1-6.44L524.6,351.59z M575.17,456.41
				c0.15,2.45,1.84,3.14,3.84,2.94c2.1-0.22,3.3-1.63,3.21-3.83c-0.09-2.19-1.38-3.46-3.53-3.52c-2.09-0.05-3.58,0.89-3.58,3.27
				C575.12,455.66,575.15,456.03,575.17,456.41z M634.13,380.23c0,0.23-0.01,0.45-0.01,0.68c9.11,0.63,18.23,1.26,27.34,1.89
				c0.16-0.19,0.31-0.39,0.47-0.58c-1.16-0.98-2.33-2.83-3.49-2.82C650.33,379.46,642.23,379.9,634.13,380.23z M629.63,427.55
				c5.15,2.38,11.83-0.95,11.9-5.99C637.5,423.59,633.82,425.44,629.63,427.55z M667.63,433.24c16.09-1.49,31.57-3.33,46.14-7.6
				C698.89,428.09,683.53,430.62,667.63,433.24z M662.41,417.86c-3.48,0.74-5.78,2.62-7.77,5.28
				C658.42,424.49,662.45,421.81,662.41,417.86z M710.68,398.14c-10.58-4.46-21.19-6.94-31.97-8.79
				C689.21,392.23,699.71,395.12,710.68,398.14z M681.94,416.32c-3.05,0.39-4.15,1.35-4.33,3.83
				C680.51,420.2,682.08,418.82,681.94,416.32z"/>
			<path class="st0" d="M524.51,351.51c2.89,1.49,5.78,2.98,8.66,4.48c18.52,9.65,35.03,21.81,48.11,38.31
				c0.9,1.14,2.27,1.9,3.42,2.84c-4.28,4.62-8.71,9.4-13.13,14.17c0.08,0.11,0.16,0.22,0.24,0.32c0.51-0.34,1.07-0.63,1.51-1.04
				c3.12-2.89,6.17-5.86,9.35-8.7c2.7-2.41,5.45-4.47,9.45-4.8c4.19-0.34,8.28-1.74,12.45-2.56c1.46-0.29,3-0.2,4.56,0.02
				c-2.42,0.57-4.84,1.13-7.86,1.84c21.88,1.5,40.89,9.47,59.4,19.59c-3.62,2.08-6.36-0.01-9.09-1.38c-2.19-1.1-3.68-0.83-5.66,0.64
				c-11.44,8.5-24.18,13.12-39.36,12.29c1.28-0.96,2.16-1.47,2.86-2.16c3.11-3.12,6.67-5.95,9.13-9.52
				c4.03-5.86,0.37-14.01-6.56-15.51c-7.59-1.64-14.79-0.89-21.34,3.7c-4.72,3.31-9.42,6.65-14.29,9.72
				c-2.83,1.78-5.87,3.33-9.01,4.44c-4.03,1.42-5.75-0.38-4.79-4.57c0.63-2.76,1.54-5.48,1.95-8.27
				c1.51-10.18-2.26-18.58-9.12-25.84c-1.13-1.2-2.3-2.37-3.72-3.82c2.35,0,4.33,0,6.33,0c-3.83-2.47-9.54-0.54-12.58-5.41
				c1.78,0,3.41,0,5.05,0c0.03-0.21,0.06-0.43,0.09-0.64c-2.06-0.36-4.12-0.7-6.17-1.1c-1.03-0.2-2.17-0.27-3.03-0.78
				c-9.87-5.9-19.7-11.88-30.23-18.26c4.84,0.74,9.17,1.41,13.5,2.07C524.6,351.59,524.51,351.51,524.51,351.51z M644.32,410.32
				c-7.88-2.71-15.61-5.37-23.35-8.03c-0.15,0.3-0.31,0.59-0.46,0.89c1.79,1.45,3.58,2.91,5.57,4.52c0.21-0.08,1.11-0.41,2-0.73
				c0.18,1.2,0.36,2.39,0.58,3.88c0.66-0.74,1.17-1.44,1.81-2c0.4-0.35,1.07-0.76,1.5-0.66c2.81,0.71,5.58,1.55,8.64,2.43
				c-2.15,4.05-5.45,6.53-9.07,8.58c-3.57,2.03-7.3,3.77-10.96,5.64C629.73,422.38,638.6,419.4,644.32,410.32z"/>
			<path class="st0" d="M730.64,455.61c-16.95,8.72-35.11,13.37-53.95,16.62c-0.14-0.98-0.25-1.73-0.39-2.73
				C695.05,466.94,713.31,463.05,730.64,455.61z"/>
			<path class="st0" d="M613.21,473.72c-4.43-1.34-7.48-6.43-7.13-11.91c0.36-5.63,4.58-10.07,10.38-10.92
				C606.48,457.72,606.87,466.39,613.21,473.72z"/>
			<path class="st0" d="M575.1,455.28c0.4-0.47,0.75-1.25,1.22-1.33c0.92-0.17,2.37-0.31,2.78,0.19c0.55,0.69,0.71,2.21,0.29,2.96
				c-0.33,0.59-1.8,0.75-2.74,0.7c-0.52-0.03-0.99-0.9-1.48-1.39C575.15,456.03,575.12,455.66,575.1,455.28z"/>
		</g>
		<g>
			<path class="st0" d="M475.49,351.51c-5.71,2.13-11.51,4.04-17.1,6.44c-17.05,7.3-33.17,16.19-46.67,29.12
				c-2.86,2.74-5.85,3.59-9.48,3.78c-7.51,0.4-15.02,0.95-22.53,1.38c-0.73,0.04-1.48-0.38-2.39-0.64
				c-0.19,0.85-0.41,1.84-0.48,2.15c-2.15-0.38-4.16-0.73-6.29-1.11c-0.11,0.98-0.21,1.89-0.26,2.41c-1.23-0.33-2.36-0.81-3.51-0.89
				c-1.22-0.09-2.48,0.2-3.75,0.33c-0.08,0.78-0.16,1.57-0.26,2.58c-2.91-4.14-6.37,0.19-9.49-1.39c0,1.33,0,2.35,0,3.37
				c-1.16-3.22-3.52-2.08-5.65-1.7c-2.09,0.38-4.18,0.74-6.67,1.18c-0.12,1.19-0.28,2.83-0.5,5.14c-0.65-1.86-1.1-3.15-1.59-4.56
				c-4.37,0.89-8.66,1.77-13.21,2.7c0,0.89,0,2.23,0,4.2c-0.81-1.46-1.3-2.35-1.84-3.33c-3.11,0.73-6.16,1.44-9.26,2.17
				c0,1.47,0,2.57,0,4.36c-0.86-1.53-1.4-2.48-2.05-3.62c-2.89,0.98-5.76,1.96-8.86,3.01c-0.08,0.96-0.18,2.13-0.31,3.78
				c-0.67-1.04-1.07-1.66-1.46-2.28c-4.35,2.46-5.08,4.66-2.74,7.83c3.95-4.06,9.7-2.93,10.69,0.58c1.3-0.75,2.59-1.51,3.9-2.26
				c3.35-1.91,6.41-1.43,9.33,0.99c1.63,1.35,3.39,2.55,5,3.75c7.52-6.4,12.63-4.73,20.61,2.18c-0.29,0.49-0.59,0.97-1.17,1.94
				c1.97-1.14,3.48-1.92,4.88-2.85c3.18-2.11,6.38-2.36,9.76-0.48c3.72,2.06,7.46,4.09,11.24,6.03c1.23,0.63,2.59,1.1,3.95,1.38
				c2.6,0.53,5.27,0.73,7.87,1.3c4.96,1.08,9.88,2.31,14.43,4.99c-0.58,0.46-0.95,0.76-0.78,0.63c3.37,0.8,7.13,1.2,10.48,2.58
				c7.85,3.23,15.49,6.98,23.26,10.42c3.47,1.54,6.94,3.22,10.58,4.18c13.38,3.52,27.05,3.24,40.72,2.52
				c3.07-0.16,4.55,1.56,3.3,4.42c-0.86,1.97-2.2,3.87-3.74,5.39c-6.89,6.78-15.03,11.6-24.35,14.12c-3.2,0.86-5.26,2.01-5.47,5.46
				c-0.01,0.19-0.19,0.37-0.39,0.75c-0.29-0.85-0.51-1.49-0.77-2.23c-0.97,1.29-1.84,2.44-3.18,4.22c0.5-2.46,0.83-4.11,1.18-5.84
				c-7.42-0.29-14.32,0.19-21.08,2.24c-1.52,0.46-3.42,0.66-4.87,0.17c-6.47-2.15-13.07-2.71-19.69-1.58
				c-6.1,1.03-12.11,2.59-18.12,4.08c-5.12,1.27-9.79,1.22-13.73-3.02c-0.98-1.05-2.57-1.53-4.37-2.56
				c0.34,4.01-1.99,4.51-4.38,4.69c-1.94,0.15-3.91-0.14-5.84,0c-1.32,0.1-2.82,0.29-3.89,0.98c-11.18,7.2-23.09,12.4-36.46,13.78
				c-5.99,0.62-11.9,0.27-17.62-1.48c5.17-1.43,10.31-2.85,15.44-4.27c-0.06-0.17-0.11-0.33-0.17-0.5
				c-4.34,0.74-8.68,1.49-13.02,2.23c-0.05-0.25-0.11-0.51-0.16-0.76c1.39-0.73,2.77-1.47,4.17-2.2c8.99-4.68,15.82-11.2,18.96-21.2
				c1.41-4.51,1.7-4.42,6.26-2.89c0.13,0.04,0.21,0.26,0.37,0.48c-0.12,0.76-0.25,1.58-0.39,2.43c1.23-0.97,2.34-1.85,3.46-2.73
				c0.18,0.22,0.37,0.44,0.55,0.65c-0.66,1.7-1.32,3.4-1.98,5.1c1.35-1.07,2.53-2.28,3.18-3.73c0.99-2.19,2.78-2.43,4.63-2.14
				c2.7,0.42,5.38,1.07,8,1.83c2.06,0.6,4.03,1.51,6.42,2.42c-8.15,13.52-21.04,19.23-34.43,24.26c13.1-3.12,24.89-8.63,34.52-19.25
				c-0.52,1.29-0.78,1.95-1.04,2.6c0.12,0.06,0.24,0.12,0.36,0.18c0.84-1.11,1.68-2.22,2.53-3.34c0.11,0.05,0.22,0.09,0.33,0.14
				c-0.55,1.38-1.1,2.76-1.75,4.36c3.14,0,5.92,0,9.32,0c-8.88-15.9-10.74-30.8,4.49-43.74c-1.08,2.5-2.26,4.95-3.22,7.49
				c-3,7.92-3.97,15.84,0.61,23.55c1.95,3.28,4.03,6.47,6.1,9.67c3.01,4.64,5.36,5.61,10.78,4.51c0.87-0.18,1.71-0.45,2.58-0.63
				c9.88-2.02,19.74-4.13,29.65-6.01c4.17-0.79,8.38-1.14,12.4,1.12c1.47,0.82,3.32,0.97,5,1.43c0.05-0.14,0.09-0.28,0.14-0.42
				c-2.7-1.13-5.39-2.26-8.09-3.38c21.57,6.64,39.83,0.82,55.85-13.99c-0.4-0.23-0.74-0.2-1.06-0.1
				c-16.63,4.94-33.23,4.42-49.85-0.1c-1.96-0.53-3.06-1.13-2.79-3.49c0.25-2.22-0.46-4.35-2.34-6.34c0.15,1.45,0.62,2.56,0.28,3.33
				c-0.66,1.53-1.47,3.52-2.76,4.11c-1.42,0.64-4.31,0.57-5.06-0.38c-1.89-2.39-4.21-1.9-6.53-2.21c-2.89-0.38-5.8-0.77-8.62-1.49
				c-4.79-1.23-6.75-4.41-6.11-9.42c0.12-0.92,0.37-1.83,0.56-2.74c-0.16-0.1-0.31-0.19-0.47-0.29c-1.77,2.25-3.53,4.5-4.83,6.16
				c-8.25-0.74-16.18-1.45-24.27-2.18c1.29-3.64,2.73-7.67,4.39-12.35c-5.86,5.13-11.13,9.83-14.72,16.12
				c-0.41,0.73-1.29,1.64-1.99,1.67c-3.42,0.17-6.85,0.08-10.6,0.08c0-3.33,0-5.96,0-8.6c-0.26-0.04-0.52-0.09-0.78-0.13
				c-1.03,3.05-2.06,6.11-2.85,8.46c-4.06-0.43-8.09-0.86-12.23-1.3c-0.26-2.37-0.5-4.61-0.74-6.85c-0.27-0.07-0.55-0.14-0.82-0.2
				c-1.06,3.35-2.12,6.7-3.18,10.05c0.86-3.56-1.63-3.45-4.02-3.64c-2.36-0.18-4.71-0.55-7.12-0.84c-0.17-2.17-0.32-4.14-0.48-6.12
				c-0.31-0.04-0.61-0.09-0.92-0.13c-0.93,3.27-1.87,6.53-2.84,9.92c-0.21-1.43-0.4-2.73-0.61-4.15c-3.96-0.66-7.84-1.3-11.87-1.97
				c0-2.34,0-4.33,0-6.31c-0.29-0.1-0.59-0.21-0.88-0.31c-1.42,2.97-2.85,5.95-4.23,8.84c-0.1-1.01-0.21-2.13-0.32-3.16
				c-3.78-0.94-7.34-1.83-10.77-2.68c0-1.98,0-3.58,0-5.17c-0.28-0.1-0.56-0.19-0.83-0.29c-1.16,2.25-2.32,4.51-3.6,7
				c0.44-2.73-1.21-3.43-3.22-4.04c-2-0.61-3.9-1.55-5.76-2.31c0.16-1.49,0.28-2.71,0.41-3.92c-0.31-0.09-0.63-0.18-0.94-0.26
				c-0.93,2.23-1.87,4.47-2.76,6.6c-0.12-0.74-0.16-1.72-0.44-2.63c-0.26-0.84-0.56-1.86-1.19-2.34c-2.39-1.8-5.69-2.85-4.53-7.21
				c-0.33,0.05-0.67,0.1-1,0.15c-0.62,1.83-1.23,3.66-1.94,5.77c-0.44-2.53-0.86-4.92-1.28-7.31c-0.28,0.03-0.57,0.07-0.85,0.1
				c0.14,1.82-2.38,3.19-0.85,5.17c1.9,2.47,1.86,5.41,2.53,8.22c0.82,3.42,1.79,6.88,3.32,10.02c0.95,1.94,2.76,3.9,4.68,4.84
				c13.47,6.58,27.22,12.52,41.97,15.64c5.94,1.26,11.97,2.08,18,3.11c0.05,1.71-0.65,2.55-2.55,2.22
				c-4.97-0.86-10.01-1.41-14.92-2.55c-13.91-3.24-26.59-9.65-39.58-15.34c-7.2-3.15-11.07-8.45-13.13-15.64
				c-1.14-3.97-2.57-7.87-3.66-11.85c-0.35-1.27-0.33-2.79,0.01-4.06c0.52-1.94,1.76-3.7,2.17-5.65c1.27-5.94,4.23-10.86,8.55-15.02
				c5.25-5.04,11.49-8.54,18.09-11.5c2.95-1.32,5.78-2.94,8.69-4.34c0.69-0.33,1.52-0.35,2.28-0.53c3.15-0.72,6.3-1.44,9.45-2.15
				c2.09-0.47,4.18-1.29,6.28-1.32c3.31-0.04,6.35-0.54,8.91-2.75c1.9-1.63,3.92-1.86,6.16-0.78c0.79,0.38,2.13,1.09,2.41,0.82
				c2.19-2.15,4.61-0.28,6.86-0.61c0.66-0.1,1.3-0.32,2.63-0.65c-1.5-0.38-2.27-0.57-3.05-0.77c0.02-0.22,0.05-0.44,0.07-0.66
				c0.94,0.1,1.94,0.03,2.82,0.33c2.49,0.85,4.02,0.16,5.51-2.11c6.76-10.34,15.99-17.94,26.92-23.55c0.66-0.34,1.39-0.54,2.09-0.81
				c-1.82,1.83-3.85,3.23-5.79,4.76c-1.95,1.54-3.86,3.13-5.68,4.81c-1.74,1.6-3.34,3.33-5.01,5.01
				c6.91-5.79,14.19-10.83,22.42-14.57c1.07,3.74-1.77,9.38-4.97,10.87c-2.57,1.19-4.96,2.77-7.43,4.17
				c0.11,0.19,0.21,0.38,0.32,0.57c1.93-0.78,3.86-1.56,6.4-2.59c-0.9,2.16-1.46,3.53-1.92,4.63c1.82,4.02,5.28,5.8,9.32,6.57
				c11.6,2.23,22.72,0.99,32.66-5.72c22.7-15.33,47.52-25.18,74.57-29.35c5.47-0.84,11.04-1.1,16.56-1.62
				c0.28,3.45-0.02,3.58-2.87,3.94c-9.22,1.17-18.46,2.2-27.6,3.84c-5.58,1-10.97,3.03-16.44,4.6c0.06,0.22,0.12,0.45,0.18,0.67
				c0.5-0.08,1-0.13,1.5-0.24c6.12-1.44,12.22-2.95,18.36-4.28c1.72-0.37,3.56-0.19,5.35-0.27L475.49,351.51z M424.9,455.28
				c-0.01-2.39-1.49-3.33-3.58-3.27c-2.15,0.05-3.44,1.33-3.53,3.52c-0.09,2.19,1.11,3.61,3.21,3.83c2,0.21,3.69-0.48,3.84-2.94
				C424.85,456.03,424.88,455.66,424.9,455.28z M341.56,379.4c-1.16-0.01-2.32,1.83-3.49,2.82c0.16,0.19,0.31,0.39,0.47,0.58
				c9.11-0.63,18.23-1.26,27.34-1.89c0-0.23-0.01-0.45-0.01-0.68C357.77,379.9,349.67,379.46,341.56,379.4z M358.47,421.56
				c0.07,5.04,6.74,8.37,11.9,5.99C366.18,425.44,362.5,423.59,358.47,421.56z M286.23,425.64c14.58,4.27,30.05,6.12,46.14,7.6
				C316.47,430.62,301.11,428.09,286.23,425.64z M345.36,423.14c-1.99-2.67-4.29-4.54-7.77-5.28
				C337.55,421.81,341.58,424.49,345.36,423.14z M321.29,389.35c-10.78,1.86-21.39,4.34-31.97,8.79
				C300.29,395.12,310.79,392.23,321.29,389.35z M322.39,420.14c-0.18-2.47-1.28-3.44-4.33-3.83
				C317.92,418.82,319.49,420.2,322.39,420.14z"/>
			<path class="st0" d="M475.4,351.6c4.33-0.66,8.66-1.33,13.5-2.07c-10.53,6.37-20.36,12.35-30.23,18.26
				c-0.86,0.51-2,0.58-3.03,0.78c-2.05,0.39-4.12,0.74-6.17,1.1c0.03,0.21,0.06,0.43,0.09,0.64c1.64,0,3.28,0,5.05,0
				c-3.04,4.87-8.75,2.94-12.58,5.41c2,0,3.98,0,6.33,0c-1.41,1.45-2.58,2.62-3.72,3.82c-6.86,7.26-10.63,15.66-9.12,25.84
				c0.41,2.79,1.32,5.51,1.95,8.27c0.96,4.19-0.76,5.99-4.79,4.57c-3.14-1.11-6.19-2.67-9.01-4.44c-4.87-3.06-9.57-6.41-14.29-9.72
				c-6.55-4.59-13.75-5.34-21.34-3.7c-6.93,1.5-10.59,9.65-6.56,15.51c2.46,3.58,6.02,6.4,9.13,9.52c0.69,0.7,1.58,1.2,2.86,2.16
				c-15.18,0.82-27.92-3.8-39.36-12.29c-1.98-1.47-3.47-1.74-5.66-0.64c-2.72,1.36-5.47,3.46-9.09,1.38
				c18.51-10.12,37.52-18.09,59.4-19.59c-3.02-0.71-5.44-1.27-7.86-1.84c1.56-0.21,3.09-0.3,4.56-0.02
				c4.16,0.81,8.26,2.22,12.45,2.56c4,0.32,6.75,2.38,9.45,4.8c3.17,2.83,6.22,5.81,9.35,8.7c0.44,0.41,1,0.7,1.51,1.04
				c0.08-0.11,0.16-0.22,0.24-0.32c-4.42-4.77-8.85-9.55-13.13-14.17c1.14-0.93,2.52-1.7,3.42-2.84
				c13.08-16.5,29.59-28.66,48.11-38.31c2.88-1.5,5.77-2.99,8.66-4.48C475.49,351.51,475.4,351.59,475.4,351.6z M379.43,424.86
				c-3.66-1.87-7.39-3.61-10.96-5.64c-3.61-2.05-6.92-4.54-9.07-8.58c3.06-0.88,5.83-1.72,8.64-2.43c0.43-0.11,1.09,0.31,1.5,0.66
				c0.64,0.55,1.15,1.25,1.81,2c0.22-1.49,0.4-2.69,0.58-3.88c0.89,0.33,1.79,0.66,2,0.73c1.99-1.62,3.78-3.07,5.57-4.52
				c-0.15-0.3-0.31-0.59-0.46-0.89c-7.74,2.66-15.47,5.32-23.35,8.03C361.4,419.4,370.27,422.38,379.43,424.86z"/>
			<path class="st0" d="M269.36,455.61c16.95,8.72,35.11,13.37,53.95,16.62c0.14-0.98,0.25-1.73,0.39-2.73
				C304.95,466.94,286.69,463.05,269.36,455.61z"/>
			<path class="st0" d="M386.79,473.72c4.43-1.34,7.48-6.43,7.13-11.91c-0.36-5.63-4.58-10.07-10.38-10.92
				C393.52,457.72,393.13,466.39,386.79,473.72z"/>
			<path class="st0" d="M424.9,455.28c-0.4-0.47-0.75-1.25-1.22-1.33c-0.92-0.17-2.37-0.31-2.78,0.19
				c-0.55,0.69-0.71,2.21-0.29,2.96c0.33,0.59,1.8,0.75,2.74,0.7c0.52-0.03,0.99-0.9,1.48-1.39
				C424.85,456.03,424.88,455.66,424.9,455.28z"/>
		</g>
	</g>
	<g>
		<path class="st1" d="M140.49,572.69c6.07,2.44,12.02,4.81,17.96,6.82V473.95c0.03,0,0.07,0.03,0.1,0.03
			c-0.03-0.03-0.03-0.03-0.06-0.06c25.17-9.06,39.14-14.03,61.9-38.49c-12.05,5.36-23.97,7.96-36.25,7.96
			c-16.86,0-32.12-4.9-46.9-9.61c-14.71-4.71-28.58-9.13-43.91-9.13c-12.54,0-24.78,3.12-37.29,9.48
			c14.19,15.91,22.83,29.36,38.88,57.29l1.43,2.5l-1.46,2.44c-14.88,24.62-23.22,39.1-36.8,67.65c9.52-3.38,18.97-5.03,28.58-5.03
			C106.36,559.01,123.7,565.96,140.49,572.69z"/>
		<path class="st1" d="M167.81,475.7c0.84,0.75,1.69,1.49,2.5,2.21c15.39,4.81,33.55,9.22,54.04,13.22v-52.84
			C202.98,461.32,188.69,468.04,167.81,475.7z"/>
		<path class="st1" d="M832.16,475.74c-3.25-1.2-6.3-2.37-9.26-3.57c-0.71-0.29-1.43-0.58-2.14-0.88c-0.71-0.29-1.4-0.58-2.08-0.91
			c-0.68-0.29-1.36-0.58-2.01-0.88c-1.07-0.49-2.14-1.01-3.22-1.53c-0.91-0.45-1.82-0.91-2.73-1.4c-0.71-0.36-1.43-0.75-2.14-1.17
			c-2.05-1.14-4.09-2.34-6.17-3.67c-1.3-0.84-2.57-1.72-3.87-2.66c-0.68-0.49-1.33-0.97-2.01-1.49c-0.68-0.49-1.36-1.01-2.05-1.56
			c-1.36-1.07-2.73-2.21-4.16-3.41c-0.68-0.58-1.4-1.2-2.11-1.85c-2.83-2.53-5.78-5.36-8.87-8.54c-0.78-0.78-1.56-1.59-2.34-2.44
			c-0.45-0.49-0.88-0.97-1.4-1.46v52.81c20.56-3.99,38.75-8.44,54.14-13.25C830.54,477.17,831.35,476.45,832.16,475.74z"/>
		<path class="st1" d="M836.64,581.13V480.77c-1.43,0.49-2.89,0.94-4.38,1.4c-1.82,0.62-3.67,1.17-5.59,1.72h-0.03
			c-1.85,0.58-3.73,1.14-5.65,1.66c-13.54,3.83-28.74,7.34-45.37,10.56c-0.81,0.16-1.62,0.33-2.44,0.49
			c-0.81,0.16-1.62,0.29-2.44,0.45c-71.49,13.35-167.98,21.11-270.74,21.11c-102.79,0-199.29-7.76-270.77-21.11
			c-0.81-0.16-1.62-0.32-2.44-0.49c-0.81-0.13-1.62-0.29-2.44-0.45c-16.6-3.22-31.76-6.72-45.28-10.52
			c-1.88-0.52-3.77-1.07-5.59-1.62c-1.95-0.55-3.83-1.14-5.68-1.75h-0.03c-1.53-0.45-2.99-0.94-4.45-1.43V581.1v2.5v2.6v32.58
			c67.85,23.42,196.2,37.9,336.67,37.9c140.47,0,268.83-14.49,336.64-37.9v-27.35v-5.2v-2.57V581.13z"/>
		<path class="st1" d="M906.63,422.24v2.44c-15.3,0-29.2,4.42-43.91,9.13c-14.75,4.71-30.04,9.58-46.9,9.58
			c-12.24,0-24.16-2.6-36.18-7.89c22.73,24.42,36.67,29.39,61.87,38.45v105.59c5.98-2.05,11.92-4.42,17.96-6.85
			c16.79-6.72,34.17-13.67,53.82-13.67c9.61,0,19.06,1.66,28.61,5c-13.58-28.52-21.96-43.03-36.8-67.62l-1.49-2.47l1.43-2.47
			c16.04-27.93,24.72-41.41,38.91-57.29c-12.5-6.37-24.75-9.48-37.29-9.48v-2.44H906.63z"/>
	</g>
	<g>
		<g>
			<path class="st2" d="M308.98,595.75c1.07,0.24,2.13,0.48,3.2,0.72c2.02,3.94,4.07,7.88,6.15,11.81
				c-7.44,6.77-21.05,7.93-33.66,4.76c-17.13-4.25-31.98-16.41-27.71-30.78c4.27-14.68,8.53-29.37,12.8-44.05
				c4.27-14.36,21.63-17.09,36.99-13.28c11.38,2.87,21.89,9.39,25.52,18.53c-3.31,2.77-6.66,5.52-10.03,8.26
				c-1.01-0.23-2.03-0.46-3.04-0.69c2.11-9.41-5.93-17.89-14-19.93c-8.08-2.02-17.42,0.5-19.98,9.81
				c-4.28,15.78-8.56,31.56-12.84,47.34c-2.56,9.31,4.98,16.42,13.84,18.63C295.07,609.11,306.87,605.17,308.98,595.75z"/>
			<path class="st2" d="M393.88,608.48c-10.96-1.45-21.9-3.09-32.81-4.94c-2.49,4.65-5,9.28-7.55,13.91
				c3.86,2.71,7.75,5.4,11.67,8.06c-0.12,0.75-0.24,1.5-0.36,2.24c-11.5-1.85-22.98-3.91-34.42-6.18c0.15-0.74,0.3-1.49,0.44-2.23
				c3.96-0.95,7.89-1.93,11.82-2.93c3.66-6.44,7.26-12.9,10.82-19.38c0.07-0.41,0.15-0.82,0.22-1.23c0.15,0.03,0.29,0.05,0.44,0.08
				c8.72-15.9,17.12-31.91,25.2-48.03c-2.91-1.76-5.8-3.54-8.67-5.34c0.13-0.78,0.27-1.57,0.4-2.35c12.69,2.15,25.42,4.02,38.17,5.6
				c-0.1,0.79-0.2,1.58-0.29,2.37c-3.36,0.92-6.73,1.82-10.12,2.7c4.52,25.63,9.72,51.24,15.61,76.8c3.59,1.87,7.19,3.72,10.82,5.55
				c-0.07,0.75-0.14,1.51-0.22,2.26c-14.09-1.34-28.15-3-42.19-4.97c0.11-0.75,0.21-1.5,0.32-2.25c4.69-1.1,9.36-2.23,14.01-3.4
				C396.05,619.38,394.95,613.93,393.88,608.48z M384.72,557.88c-6.59,13.32-13.4,26.58-20.42,39.76c9.39,1.56,18.8,2.98,28.22,4.25
				C389.7,587.22,387.1,572.55,384.72,557.88z"/>
			<path class="st2" d="M471.85,623.49c8.22-20.95,15.95-42.02,23.18-63.17c-3.89-2.06-7.75-4.14-11.58-6.25
				c0.03-0.79,0.06-1.59,0.09-2.38c10.53,0.38,21.07,0.56,31.6,0.56c0,0.79,0,1.59,0,2.38c-3.35,1.67-6.72,3.32-10.11,4.95
				c-8.74,26.59-18.27,53.05-28.58,79.34c-5.8-0.23-11.6-0.52-17.4-0.86c-7.75-27.45-14.69-54.99-20.83-82.59
				c-3.28-1.7-6.55-3.41-9.79-5.15c0.08-0.79,0.16-1.58,0.24-2.37c12.78,1.29,25.58,2.28,38.39,2.99c-0.04,0.79-0.09,1.59-0.13,2.38
				c-4.18,1.47-8.38,2.92-12.6,4.33C459.65,579.65,465.5,601.6,471.85,623.49z"/>
			<path class="st2" d="M537.61,559.21c-4.02-1.52-8.01-3.07-11.98-4.64c-0.01-0.79-0.02-1.59-0.03-2.38
				c12.83-0.17,25.65-0.62,38.46-1.37c0.05,0.79,0.09,1.59,0.14,2.38c-3.76,1.81-7.55,3.6-11.35,5.36
				c1.09,24.35,2.17,48.7,3.26,73.05c4.28,1.44,8.58,2.85,12.9,4.23c0.04,0.76,0.09,1.51,0.13,2.27
				c-14.12,0.82-28.25,1.32-42.39,1.51c-0.01-0.76-0.02-1.51-0.03-2.27c4.31-1.72,8.6-3.47,12.86-5.25
				C538.91,607.79,538.26,583.5,537.61,559.21z"/>
			<path class="st2" d="M638.28,608.03c-10.95,1.49-21.93,2.78-32.92,3.87c-1.17,5.14-2.38,10.27-3.61,15.41
				c4.43,1.6,8.88,3.17,13.36,4.7c0.08,0.75,0.16,1.51,0.24,2.26c-11.56,1.24-23.14,2.27-34.73,3.09c-0.05-0.76-0.11-1.51-0.16-2.27
				c3.55-1.96,7.08-3.93,10.59-5.93c1.82-7.18,3.6-14.36,5.31-21.54c-0.04-0.41-0.07-0.83-0.11-1.24c0.15-0.01,0.29-0.03,0.44-0.04
				c4.21-17.63,8.08-35.29,11.63-52.97c-3.26-0.94-6.52-1.89-9.75-2.87c-0.08-0.79-0.16-1.58-0.23-2.37
				c12.78-1.26,25.54-2.81,38.27-4.64c0.11,0.79,0.23,1.57,0.34,2.36c-3,1.77-6.02,3.53-9.06,5.27
				c11.1,23.53,22.87,46.87,35.3,69.98c3.96,0.86,7.93,1.69,11.92,2.5c0.13,0.75,0.26,1.49,0.39,2.24
				c-13.98,2.42-28,4.53-42.05,6.31c-0.1-0.75-0.19-1.5-0.29-2.25c4.24-2.29,8.44-4.62,12.62-6.97
				C643.24,617.97,640.74,613,638.28,608.03z M616.13,561.62c-2.85,14.59-5.92,29.17-9.21,43.73c9.45-0.96,18.89-2.07,28.31-3.33
				C628.65,588.62,622.28,575.15,616.13,561.62z"/>
			<path class="st2" d="M685.6,542.37c-4.24-0.8-8.45-1.64-12.65-2.51c-0.15-0.78-0.29-1.56-0.44-2.34
				c13.84-2.6,27.62-5.54,41.35-8.83c15.42-3.66,32.77-0.75,36.89,13.65c0.47,1.68,0.94,3.35,1.41,5.03
				c3.28,11.58-5.05,21.37-17.15,26.87c8.54,7.77,17.27,15.41,26.19,22.94c5.24,1,10.51,1.95,15.81,2.85
				c0.21,0.73,0.42,1.45,0.63,2.18c-8.52,2.48-17.07,4.83-25.64,7.06c-11.45-9.85-22.59-19.9-33.43-30.13
				c-2.9,0.67-5.8,1.33-8.71,1.97c2.18,9.87,4.36,19.74,6.54,29.6c3.98,0.71,7.97,1.39,11.98,2.05c0.17,0.74,0.34,1.47,0.52,2.21
				c-13.36,3.12-26.77,5.94-40.23,8.47c-0.14-0.74-0.28-1.49-0.42-2.23c3.97-2.44,7.91-4.91,11.82-7.4
				C695.24,590,690.42,566.19,685.6,542.37z M737.35,553.01c-0.71-2.71-1.41-5.42-2.12-8.13c-2.46-9.33-11.78-11.94-19.9-10.01
				c-4.97,1.19-9.95,2.34-14.94,3.44c2.69,12.2,5.39,24.39,8.08,36.59c5.2-1.15,10.4-2.35,15.58-3.59
				C732.58,569.28,739.81,562.35,737.35,553.01z"/>
		</g>
	</g>
</g>
</svg>
